<?xml version="1.0" encoding="UTF-8"?>
<svg xmlns="http://www.w3.org/2000/svg" width="132" height="40" viewBox="0 0 132 40" fill="none">
  <path d="M52.8203 31V10H56.5103L64.1603 22.45L62.0003 22.42L69.7403 10H73.2503V31H69.3803V23.11C69.3803 21.31 69.4203 19.69 69.5003 18.25C69.6003 16.81 69.7603 15.38 69.9803 13.96L70.4603 15.25L63.9503 25.3H61.9703L55.6703 15.34L56.0903 13.96C56.3103 15.3 56.4603 16.68 56.5403 18.1C56.6403 19.5 56.6903 21.17 56.6903 23.11V31H52.8203Z" fill="#353535"></path>
  <path d="M83.6045 31.3C82.3045 31.3 81.1245 30.94 80.0645 30.22C79.0045 29.5 78.1545 28.52 77.5145 27.28C76.8745 26.04 76.5545 24.63 76.5545 23.05C76.5545 21.47 76.8745 20.06 77.5145 18.82C78.1545 17.58 79.0245 16.61 80.1245 15.91C81.2245 15.21 82.4645 14.86 83.8445 14.86C84.6445 14.86 85.3745 14.98 86.0345 15.22C86.6945 15.44 87.2745 15.76 87.7745 16.18C88.2745 16.6 88.6845 17.08 89.0045 17.62C89.3445 18.16 89.5745 18.74 89.6945 19.36L88.8845 19.15V15.19H92.6045V31H88.8545V27.22L89.7245 27.07C89.5845 27.61 89.3245 28.14 88.9445 28.66C88.5845 29.16 88.1245 29.61 87.5645 30.01C87.0245 30.39 86.4145 30.7 85.7345 30.94C85.0745 31.18 84.3645 31.3 83.6045 31.3ZM84.6245 28.03C85.4845 28.03 86.2445 27.82 86.9045 27.4C87.5645 26.98 88.0745 26.4 88.4345 25.66C88.8145 24.9 89.0045 24.03 89.0045 23.05C89.0045 22.09 88.8145 21.24 88.4345 20.5C88.0745 19.76 87.5645 19.18 86.9045 18.76C86.2445 18.34 85.4845 18.13 84.6245 18.13C83.7645 18.13 83.0045 18.34 82.3445 18.76C81.7045 19.18 81.2045 19.76 80.8445 20.5C80.4845 21.24 80.3045 22.09 80.3045 23.05C80.3045 24.03 80.4845 24.9 80.8445 25.66C81.2045 26.4 81.7045 26.98 82.3445 27.4C83.0045 27.82 83.7645 28.03 84.6245 28.03Z" fill="#353535"></path>
  <path d="M96.2826 31V15.19H99.9126L99.9726 20.23L99.4626 19.09C99.6826 18.29 100.063 17.57 100.603 16.93C101.143 16.29 101.763 15.79 102.463 15.43C103.183 15.05 103.933 14.86 104.713 14.86C105.053 14.86 105.373 14.89 105.673 14.95C105.993 15.01 106.253 15.08 106.453 15.16L105.463 19.21C105.243 19.09 104.973 18.99 104.653 18.91C104.333 18.83 104.013 18.79 103.693 18.79C103.193 18.79 102.713 18.89 102.253 19.09C101.813 19.27 101.423 19.53 101.083 19.87C100.743 20.21 100.473 20.61 100.273 21.07C100.093 21.51 100.003 22.01 100.003 22.57V31H96.2826Z" fill="#353535"></path>
  <path d="M121.16 31L114.65 21.58L106.31 10H111.17L117.53 19.3L126.02 31H121.16ZM106.16 31L114.17 19.57L116.93 21.94L110.72 31H106.16ZM118.01 21.25L115.28 18.97L121.16 10H125.72L118.01 21.25Z" fill="#353535"></path>
  <path d="M129.452 31.33C128.732 31.33 128.172 31.12 127.772 30.7C127.392 30.28 127.202 29.69 127.202 28.93C127.202 28.23 127.402 27.66 127.802 27.22C128.222 26.76 128.772 26.53 129.452 26.53C130.172 26.53 130.722 26.74 131.102 27.16C131.502 27.56 131.702 28.15 131.702 28.93C131.702 29.63 131.492 30.21 131.072 30.67C130.672 31.11 130.132 31.33 129.452 31.33Z" fill="#353535"></path>
  <path d="M40 20C40 31.0457 31.0457 40 20 40C8.9543 40 0 31.0457 0 20C0 8.9543 8.9543 0 20 0C31.0457 0 40 8.9543 40 20Z" fill="#6722B5"></path>
  <path d="M14.4997 25.4621C13.8225 24.7561 12.6039 24.7562 11.9267 25.462C11.1537 26.2164 11.2847 27.3806 11.9439 28.0487C12.2596 28.3688 12.6964 28.5752 13.2132 28.568C14.8118 28.5909 15.6402 26.5736 14.4997 25.4621Z" fill="white"></path>
  <path d="M19.4664 24.39C17.9495 22.5055 16.0578 20.8578 14.1835 19.3559C13.238 18.3908 11.5458 18.4346 10.6497 19.4471C9.17842 21.0027 10.379 23.6648 12.518 23.5837C13.5347 23.5605 14.4703 23.9096 15.1537 24.5682C15.9743 25.2903 16.4528 26.2993 16.4104 27.4589C16.3328 28.8061 17.5457 30.0359 18.8744 29.9952C21.0193 30.017 22.1695 27.3492 20.6378 25.8103L19.4664 24.39Z" fill="white"></path>
  <path d="M25.5557 21.884C23.6971 21.2233 22.4591 20.1664 21.1646 18.828C19.8998 17.5706 18.6746 16.186 18.1098 14.4381C17.455 12.5418 14.8677 11.9443 13.4542 13.3801C11.938 14.8068 12.5194 17.4446 14.4873 18.1093C16.6551 18.7648 18.2484 20.557 19.7943 22.124C20.7132 23.0429 21.4165 24.181 21.8846 25.5064C22.2676 26.6249 23.3856 27.4198 24.5694 27.4043C27.7096 27.3954 28.5123 22.9802 25.5557 21.884Z" fill="white"></path>
  <path d="M29.3381 17.2041C27.9046 15.7072 26.2845 17.1546 24.5561 15.1517C23.8959 14.4756 23.5489 13.5477 23.5791 12.5389C23.6726 10.3896 21.006 9.1777 19.4426 10.6541C18.4299 11.55 18.3874 13.2424 19.3517 14.1876L20.5232 15.6078C22.04 17.4922 23.932 19.1403 25.8061 20.642C28.1637 22.81 31.4109 19.5979 29.3381 17.2041Z" fill="white"></path>
  <path d="M26.789 14.9913C27.2549 14.9913 27.7208 14.814 28.0755 14.4593C29.2364 13.3074 28.3574 11.3295 26.789 11.3534C25.811 11.3331 24.9494 12.1948 24.9696 13.1727C24.9393 14.1412 25.8282 15.0199 26.789 14.9913Z" fill="white"></path>
</svg>
